<svg height="774" viewBox="0 0 765.593 773.086" width="766" xmlns="http://www.w3.org/2000/svg"><path d="m674.112 699.668c-.026-1.69-.138-3.376-.305-5.06-.002-.012-.004-.024-.005-.036-.215-1.992-.549-3.975-.958-5.939l-111.349-513.47c-.399-1.83-.909-3.63-1.55-5.385-1.156-3.2-2.749-6.242-4.755-8.989-14.759-16.388-30.89-31.577-46.137-47.533 4.907 4.973 8.056 11.468 9.483 18.289.581 3.195 110.331 521.089 110.667 523.899.742 4.645.898 9.375.499 14.054-1.531 18.178-11.067 35.217-24.737 47.113-.003.002-.006.005-.008.007-10.553 9.176-23.977 15.445-38.061 16.039-3.369.148-6.749-.039-10.084-.54-1.841-.201-509.161-97.316-511.115-97.621l25.973 16.718-25.973-16.718c-4.417-.84-8.648-2.449-12.407-4.868 17.353 11.149 34.705 22.298 52.058 33.448 3.728 2.399 7.918 4.006 12.294 4.857 1.835.323 503.149 98.311 504.844 98.538 3.938.613 7.943.769 11.91.466 13.118-.983 25.551-6.903 35.424-15.464.003-.002.006-.005.009-.007 14.138-12.243 23.691-30.2 24.273-49.04v-.032c.022-.906.037-1.817.009-2.724z"/><path d="m610.461 773.086c-2.978 0-5.956-.23-8.898-.688v-.003c-3.635-.653-80.767-15.704-348.646-68.031-83.104-16.234-154.877-30.254-156.356-30.53-5.329-1.036-10.173-2.954-14.46-5.713l-52.054-33.446s-.003-.002-.004-.002c-2.786-1.793-3.592-5.504-1.8-8.291 1.791-2.786 5.501-3.594 8.29-1.802l.004.002c3.021 1.944 6.479 3.296 10.28 4.019.03.006.062.012.092.018 4.391.814 57.781 11.021 182.201 34.813 144.35 27.604 323.914 61.941 328.609 62.753 2.975.446 5.975.608 8.913.477 11.94-.504 24.139-5.671 34.361-14.549.011-.01.021-.02.033-.029 13.076-11.38 21.349-27.085 22.696-43.09.362-4.249.213-8.487-.445-12.604 0-.002 0-.003 0-.005-1.062-5.748-43.854-207.961-75.118-355.704-22.067-104.282-34.764-164.288-35.496-167.909-1.207-5.769-3.725-10.831-7.302-14.697-.215-.225-.431-.45-.646-.675-2.276-2.382-2.206-6.154.158-8.449 2.361-2.294 6.136-2.256 8.45.09.261.264.517.531.77.803 5.709 5.955 11.64 11.91 17.382 17.676 9.385 9.423 19.089 19.167 28.173 29.253.138.152.267.312.388.477 2.314 3.17 4.183 6.699 5.552 10.488.707 1.936 1.305 4.01 1.77 6.147l111.35 513.475c.487 2.337.829 4.446 1.052 6.491.007.054.013.109.019.163.196 1.977.306 3.782.334 5.517.029 1.036.014 2.034-.01 2.962 0 .041 0 .083-.002.115-.607 19.673-10.455 39.632-26.343 53.39-.014.011-.026.023-.04.034-11.391 9.864-25.193 15.86-38.873 16.885-1.457.111-2.92.167-4.383.167zm-7.009-12.538c3.462.536 6.992.672 10.487.406 11.146-.835 22.489-5.812 31.95-14.015.019-.016.037-.032.056-.048 13.353-11.584 21.631-28.242 22.158-44.583 0-.024 0-.046 0-.064.02-.783.034-1.615.011-2.395 0-.029-.002-.058-.002-.087-.021-1.39-.11-2.859-.271-4.489-.002-.02-.004-.039-.006-.058-.181-1.675-.464-3.427-.866-5.358l-111.338-513.422c-.35-1.604-.795-3.153-1.323-4.599-.954-2.641-2.227-5.079-3.792-7.27-7.764-8.606-16.064-17.038-24.219-25.237 4.819 22.857 18.374 86.91 33.611 158.916 56.844 268.62 74.265 351.13 75.212 356.254h.007c.812 5.078.997 10.297.553 15.51-1.605 19.067-11.354 37.694-26.746 51.103-.013.012-.026.023-.04.035-12.272 10.671-27.098 16.888-41.745 17.506-3.708.163-7.486-.04-11.229-.602v-.007c-4.587-.795-72.802-13.819-329.064-62.823-62.136-11.882-118.824-22.722-151.935-29.047 1.715 1.106 2.678 2.94 2.744 4.836l10.925 7.02c3.004 1.933 6.434 3.283 10.196 4.015 2.769.528 56.113 10.948 156.43 30.544 145.032 28.331 343.504 67.1 348.235 67.962zm70.651-58.123h.01z"/><path d="m485.407 102.627c4.008.354 7.845 1.231 11.405 2.622 3.565 1.393 6.853 3.301 9.756 5.717 2.908 2.42 5.431 5.348 7.46 8.778 2.033 3.435 3.572 7.371 4.508 11.801l110.142 521.009c2.243 10.614 1.35 21.368-1.91 31.413-3.264 10.06-8.897 19.392-16.113 27.144-7.215 7.751-16 13.912-25.564 17.639-9.547 3.721-19.855 5.012-30.133 3.048l-509.263-97.303c-8.6-1.643-15.362-5.904-20.194-11.856-4.818-5.934-7.72-13.552-8.617-21.941-.896-8.368.202-17.512 3.385-26.535 3.178-9.01 8.44-17.912 15.888-25.82l399.689-424.467c3.712-3.942 7.664-7.328 11.752-10.168s8.319-5.136 12.583-6.894 8.571-2.983 12.807-3.678c4.241-.696 8.415-.863 12.418-.509z" fill="#d3002e"/><path d="m564.574 738.7c-3.62 0-7.215-.335-10.74-1.008l-509.263-97.304c-9.591-1.832-17.795-6.662-23.727-13.968-5.455-6.72-8.887-15.394-9.925-25.084-1.005-9.387.272-19.474 3.692-29.169 3.579-10.144 9.519-19.804 17.178-27.938l399.689-424.466c3.905-4.148 8.177-7.843 12.697-10.982 4.365-3.032 8.98-5.559 13.718-7.513 4.637-1.912 9.389-3.275 14.124-4.052 4.719-.774 9.402-.964 13.918-.565 4.595.406 8.988 1.419 13.061 3.01 4.21 1.644 8.049 3.896 11.41 6.694 3.489 2.904 6.445 6.38 8.786 10.333 2.411 4.073 4.166 8.655 5.215 13.616l110.143 521.009c2.354 11.139 1.638 23.07-2.072 34.506-3.473 10.702-9.5 20.862-17.429 29.381-7.946 8.537-17.552 15.156-27.777 19.142-7.424 2.894-15.118 4.36-22.697 4.36zm-83.291-630.253c-2.397 0-4.848.204-7.322.61-3.834.629-7.7 1.741-11.492 3.304-3.939 1.625-7.791 3.736-11.447 6.276-3.836 2.664-7.472 5.811-10.807 9.352l-399.689 424.468c-6.522 6.927-11.57 15.123-14.598 23.703-2.828 8.018-3.893 16.282-3.077 23.9.791 7.381 3.318 13.881 7.31 18.798 4.184 5.153 9.79 8.431 16.662 9.744l509.263 97.303c8.81 1.682 17.835.76 26.828-2.745 8.553-3.333 16.628-8.913 23.352-16.137 6.744-7.246 11.861-15.86 14.798-24.908 3.062-9.44 3.666-19.234 1.746-28.321l-110.143-521.009c-.778-3.68-2.057-7.04-3.801-9.986-1.639-2.769-3.703-5.198-6.136-7.222-2.368-1.971-5.094-3.566-8.101-4.741-3.012-1.176-6.292-1.928-9.751-2.234-1.183-.104-2.383-.157-3.596-.157z"/><path d="m468.436 151.213c3.484.308 6.819 1.07 9.914 2.279 3.099 1.211 5.957 2.87 8.48 4.97 2.528 2.103 4.72 4.649 6.485 7.63 1.767 2.986 3.105 6.407 3.919 10.258l95.741 452.885c1.95 9.226 1.174 18.574-1.66 27.306-2.838 8.745-7.734 16.856-14.006 23.595-6.271 6.738-13.908 12.093-22.221 15.333-8.299 3.234-17.259 4.357-26.193 2.65l-442.674-84.58c-7.475-1.428-13.353-5.132-17.554-10.306-4.188-5.158-6.71-11.78-7.491-19.072-.778-7.274.176-15.222 2.942-23.065 2.763-7.832 7.336-15.57 13.81-22.444l347.427-368.968c3.227-3.427 6.662-6.37 10.216-8.838s7.231-4.464 10.938-5.993c3.709-1.53 7.451-2.593 11.133-3.197 3.687-.605 7.315-.75 10.794-.442z" fill="#fff"/><path d="m537.251 704.902c-3.197 0-6.37-.295-9.483-.89l-442.674-84.581c-8.521-1.628-15.813-5.922-21.086-12.418-4.839-5.959-7.882-13.641-8.799-22.215-.886-8.275.238-17.162 3.25-25.7 3.146-8.918 8.368-17.412 15.101-24.561l347.427-368.966c3.435-3.647 7.19-6.895 11.161-9.653 3.841-2.667 7.902-4.892 12.072-6.612 4.087-1.685 8.274-2.887 12.449-3.572 4.165-.684 8.303-.851 12.295-.498 4.067.36 7.96 1.257 11.568 2.667 3.738 1.46 7.148 3.461 10.135 5.946 3.103 2.58 5.73 5.671 7.811 9.185 2.14 3.613 3.696 7.675 4.626 12.073l95.74 452.885c2.075 9.817 1.445 20.328-1.822 30.399-3.054 9.41-8.352 18.343-15.32 25.831-6.987 7.507-15.438 13.328-24.436 16.835-6.544 2.551-13.33 3.843-20.015 3.843zm-72.401-547.846c-2.041 0-4.129.174-6.237.52-3.273.537-6.576 1.487-9.817 2.823-3.372 1.391-6.67 3.199-9.802 5.374-3.288 2.283-6.407 4.983-9.271 8.024l-347.427 368.966c-5.597 5.943-9.926 12.971-12.521 20.326-2.42 6.86-3.331 13.925-2.635 20.431.67 6.264 2.809 11.772 6.184 15.929 3.517 4.332 8.233 7.089 14.021 8.194l442.674 84.581c7.511 1.435 15.212.645 22.889-2.347 7.325-2.855 14.244-7.638 20.009-13.83 5.784-6.216 10.173-13.602 12.69-21.359 2.62-8.075 3.138-16.448 1.496-24.213l-95.74-452.885c-.659-3.115-1.739-5.956-3.212-8.442-1.379-2.33-3.115-4.373-5.159-6.074-1.995-1.66-4.291-3.003-6.826-3.993-2.549-.996-5.327-1.632-8.259-1.891-1.005-.089-2.025-.133-3.058-.133z"/><path d="m331.92 542.822c-28.064-4.076-53.542 30.062-42.132 55.873 6.564 14.661 24.101 17.987 37.735 11.261 11.059-5.2 19.73-15.206 23.642-26.806l.161-.384-.161.384c5.995-16.495-.271-37.205-19.244-40.327" fill="#d3002e"/><path d="m313.41 619.297c-4.003 0-7.955-.663-11.675-2.003-7.837-2.823-14.024-8.558-17.423-16.148-6.218-14.067-3.488-31.462 7.111-45.423 10.481-13.804 26.333-21.022 41.359-18.84.037.005.074.011.111.017 9.223 1.517 16.868 6.739 21.529 14.702 5.388 9.204 6.406 21.597 2.73 32.591-.074.3-.173.599-.296.893l-.08.19c-4.479 13.086-14.426 24.317-26.652 30.084-5.312 2.612-11.062 3.936-16.716 3.936zm13.993-70.8c-9.613 0-19.467 5.322-26.422 14.483-7.961 10.485-10.146 23.24-5.705 33.289 2.621 5.853 7.172 8.528 10.526 9.736 5.85 2.108 12.98 1.573 19.065-1.43.034-.017.068-.033.103-.049 9.409-4.424 17.072-13.124 20.502-23.274.018-.051.035-.102.054-.153 2.896-7.969 2.338-16.949-1.458-23.434-1.994-3.406-5.878-7.712-13.066-8.914-1.191-.17-2.394-.254-3.599-.254z"/><path d="m436.383 229.647c-12.705-1.273-24.782 7.289-30.708 18.146-.971 1.788-1.782 3.676-2.426 5.623 0 0-81.032 248.407-81.032 248.407l40.496 6.412 88.874-249.049c.685-1.95 1.206-3.977 1.477-5.887 1.909-11.27-4.803-22.546-16.681-23.653" fill="#d3002e"/><path d="m362.717 514.236c-.312 0-.626-.024-.942-.074l-40.496-6.412c-1.734-.275-3.262-1.296-4.179-2.794s-1.132-3.323-.587-4.993l81.031-248.407c.771-2.328 1.729-4.549 2.859-6.628 6.417-11.759 20.214-22.882 36.559-21.253 6.814.641 12.837 3.951 16.963 9.321 4.495 5.851 6.341 13.584 5.067 21.228-.32 2.209-.923 4.611-1.744 6.951l-88.884 249.078c-.863 2.417-3.147 3.984-5.647 3.984zm-32.614-17.239 28.633 4.534 87.2-244.361c.565-1.609.979-3.249 1.188-4.714.008-.053.016-.105.024-.157.743-4.388-.255-8.759-2.738-11.992-1.467-1.909-4.147-4.272-8.584-4.685-.014-.001-.027-.003-.041-.004-10.842-1.086-20.472 7.041-24.843 15.05-.785 1.444-1.458 3.006-1.997 4.634l-78.842 241.696z"/><g fill="#d3002e"><path d="m531.637 484.107c-2.76 0-5.244-1.916-5.856-4.722l-25.388-116.359c-.706-3.238 1.346-6.435 4.583-7.141s6.436 1.345 7.142 4.583l25.388 116.359c.706 3.238-1.346 6.435-4.583 7.141-.431.094-.861.139-1.285.139z"/><path d="m549.618 553.922c-2.816 0-5.329-1.993-5.884-4.861l-6.347-32.792c-.63-3.253 1.497-6.401 4.751-7.031 3.251-.63 6.4 1.497 7.03 4.75l6.347 32.792c.63 3.253-1.497 6.401-4.751 7.031-.385.074-.769.111-1.146.111z"/><path d="m489.337 669.223c-.391 0-.786-.038-1.184-.118l-84.625-16.925c-3.249-.65-5.356-3.811-4.707-7.06.649-3.25 3.816-5.354 7.061-4.707l84.625 16.925c3.249.65 5.356 3.811 4.707 7.06-.57 2.852-3.076 4.824-5.877 4.824z"/><path d="m120.161 601.524c-.466 0-.939-.055-1.413-.169-15.611-3.768-25.153-10.69-28.36-20.573-2.361-7.275-2.095-19.558 12.579-36.756 2.151-2.521 5.939-2.82 8.459-.67 2.521 2.151 2.82 5.938.67 8.459-8.639 10.125-12.295 19.096-10.294 25.263 2.282 7.032 12.006 10.74 19.763 12.612 3.221.778 5.202 4.019 4.424 7.24-.663 2.748-3.12 4.594-5.827 4.594z"/><path d="m129.769 530.12c-1.538 0-3.076-.588-4.248-1.763-2.34-2.346-2.335-6.145.011-8.485l23.349-23.289c2.346-2.34 6.146-2.335 8.485.011s2.335 6.145-.011 8.485l-23.349 23.289c-1.171 1.168-2.704 1.752-4.237 1.752z"/></g><path d="m75.404 233.019c-6.707-50.378-24.57-82.201-69.404-100.857 42.741-13.525 62.062-56.032 69.404-103.948 7.342 47.917 25.89 90.423 69.404 103.948-45.059 12.752-62.726 48.811-69.404 100.857z" fill="#fff"/><path d="m75.404 239.019c-3.007 0-5.551-2.226-5.947-5.208-6.882-51.692-25.935-79.537-65.761-96.109-2.326-.968-3.8-3.286-3.689-5.803.11-2.517 1.782-4.697 4.184-5.457 34.934-11.054 56.897-44.409 65.283-99.137.448-2.929 2.968-5.091 5.931-5.091s5.482 2.163 5.931 5.091c8.537 55.708 29.882 88.133 65.255 99.128 2.536.788 4.252 3.151 4.218 5.806-.033 2.656-1.81 4.973-4.365 5.697-38.396 10.866-57.861 39.531-65.087 95.847-.384 2.989-2.924 5.229-5.937 5.236h-.015zm-54.466-106.438c16.741 8.935 29.597 20.406 39.074 34.817 6.444 9.798 11.451 21.027 15.229 34.319 9.346-35.431 26.388-57.845 52.981-69.905-14.908-7.766-27.254-19.702-36.824-35.638-6.646-11.068-11.956-23.893-16.031-38.792-10.298 37.07-28.523 62.26-54.429 75.199z" fill="#d3002e"/><path d="m699.509 183.302c-5.806-43.613-21.27-71.162-60.084-87.313 37.001-11.709 53.728-48.507 60.084-89.989 6.356 41.482 22.414 78.281 60.084 89.989-39.008 11.04-54.303 42.256-60.084 87.313z" fill="#fff"/><path d="m699.509 189.302c-3.007 0-5.551-2.226-5.947-5.208-5.915-44.424-22.268-68.345-56.441-82.565-2.326-.968-3.8-3.286-3.689-5.803s1.782-4.697 4.184-5.457c29.927-9.47 48.755-38.128 55.964-85.177.447-2.929 2.966-5.092 5.929-5.092s5.482 2.163 5.931 5.091c7.339 47.892 25.635 75.751 55.935 85.168 2.536.788 4.252 3.15 4.219 5.806-.034 2.656-1.811 4.973-4.366 5.697-32.881 9.306-49.559 33.92-55.767 82.303-.384 2.989-2.924 5.229-5.937 5.236h-.015zm-45.422-92.929c13.958 7.69 24.746 17.476 32.771 29.677 5.145 7.822 9.238 16.682 12.419 27.005 6.495-23.094 18.796-45.166 44.204-57.398-20.542-11.276-35.262-31.886-43.978-61.565-8.912 30.25-24.113 51.106-45.416 62.281z" fill="#d3002e"/><path d="m165.317 310.239c-3.43-25.76-12.563-42.032-35.488-51.571 21.854-6.916 31.734-28.651 35.488-53.152 3.754 24.501 13.239 46.236 35.488 53.152-23.04 6.52-32.074 24.958-35.488 51.571z" fill="#fff"/><path d="m165.318 316.239c-3.007 0-5.551-2.226-5.947-5.208-3.405-25.576-12.334-38.704-31.846-46.823-2.326-.968-3.8-3.286-3.689-5.803s1.782-4.697 4.184-5.457c16.709-5.287 27.263-21.551 31.368-48.34.448-2.928 2.968-5.091 5.931-5.091 2.963 0 5.482 2.163 5.931 5.091 4.178 27.266 14.429 43.075 31.339 48.331 2.536.788 4.252 3.151 4.218 5.806-.033 2.656-1.81 4.973-4.365 5.697-18.327 5.187-27.649 19.112-31.171 46.561-.384 2.989-2.924 5.229-5.937 5.237h-.015zm-21.966-57.331c9.916 6.312 16.967 14.714 21.684 25.971 3.968-10.464 10.408-20.095 21.293-26.553-9.15-6.205-16.174-15.726-21.019-28.488-5.01 13.145-12.348 22.863-21.958 29.07z" fill="#d3002e"/></svg>