<svg xmlns="http://www.w3.org/2000/svg" viewBox="0 0 1280 720" width="1280" height="720"><g transform="translate(53.0 347.0) rotate(0.0 125.0 162.0) scale(0.6738998584810296 0.6742976066597295)"><svg width="370.975" height="480.5" viewBox="0 0 370.975 480.5"><path d="M364.1 117.4a13.4 13.4 0 0 0-18.9 0 13.4 13.4 0 0 0 0-18.9 13.4 13.4 0 0 0-18.9 0 13.4 13.4 0 0 0 0-18.9 13.4 13.4 0 0 0-18.9 0 13.4 13.4 0 0 0 0-18.9 13.4 13.4 0 0 0-18.9 0 13.4 13.4 0 0 0 0-18.9 13.4 13.4 0 0 0-18.9 0l-6.3 6.3-21.6 21.6-11.6 11.6a66.753 66.753 0 0 0 0 94.3 66.753 66.753 0 0 0 94.3 0L336 164l21.6-21.6 6.3-6.3a12.984 12.984 0 0 0 .2-18.7z" fill="#fff"/><path d="M277.249 198.1a69.68 69.68 0 0 1-49.27-118.921l39.5-39.5A16.351 16.351 0 0 1 295.4 51.25a16.545 16.545 0 0 1-.234 2.782 16.786 16.786 0 0 1 2.783-.232A16.317 16.317 0 0 1 314.3 70.15a16.786 16.786 0 0 1-.232 2.783 16.545 16.545 0 0 1 2.782-.234A16.318 16.318 0 0 1 333.2 89.05a16.729 16.729 0 0 1-.232 2.779 16.351 16.351 0 0 1 18.9 18.9 16.358 16.358 0 0 1 14.35 4.549 16.276 16.276 0 0 1 4.751 11.76 15.626 15.626 0 0 1-4.989 11.222l-39.462 39.461a69.213 69.213 0 0 1-49.269 20.379zm1.8-157.209a10.333 10.333 0 0 0-7.329 3.03l-39.5 39.5a63.681 63.681 0 0 0 90.058 90.058l39.5-39.5c.027-.028.054-.054.083-.08a9.678 9.678 0 0 0 3.112-6.977 10.246 10.246 0 0 0-3-7.4 10.378 10.378 0 0 0-14.657 0 3 3 0 1 1-4.243-4.243 10.364 10.364 0 0 0-14.658-14.657 3 3 0 1 1-4.242-4.242 10.365 10.365 0 0 0-14.658-14.658 3 3 0 1 1-4.242-4.242 10.365 10.365 0 0 0-14.658-14.658 3 3 0 1 1-4.242-4.242 10.359 10.359 0 0 0-7.329-17.688z" fill="#222433"/><path d="m346 116.7-37.1 37.1" fill="#fff"/><path d="M308.9 156.8a3 3 0 0 1-2.121-5.121l37.1-37.1a3 3 0 1 1 4.242 4.242l-37.1 37.1a2.991 2.991 0 0 1-2.121.879z" fill="#222433"/><path d="m327.1 97.8-37 37.1" fill="#fff"/><path d="M290.1 137.9a3 3 0 0 1-2.124-5.119l37-37.1a3 3 0 1 1 4.248 4.236l-37 37.1a2.989 2.989 0 0 1-2.124.883z" fill="#222433"/><path d="m308.3 79-37.1 37" fill="#fff"/><path d="M271.2 119a3 3 0 0 1-2.118-5.124l37.1-37a3 3 0 0 1 4.236 4.248l-37.1 37a2.99 2.99 0 0 1-2.118.876z" fill="#222433"/><path d="m289.4 60.1-37.1 37.1" fill="#fff"/><path d="M252.3 100.2a3 3 0 0 1-2.121-5.121l37.1-37.1a3 3 0 0 1 4.242 4.242l-37.1 37.1a2.989 2.989 0 0 1-2.121.879z" fill="#222433"/><path d="M63.2 110a10.02 10.02 0 0 0 0 14.3 10.02 10.02 0 0 0-14.3 0 10.02 10.02 0 0 0 0 14.3 10.02 10.02 0 0 0-14.3 0 10.02 10.02 0 0 0 0 14.3 10.02 10.02 0 0 0-14.3 0 10.02 10.02 0 0 0 0 14.3 10.02 10.02 0 0 0-14.3 0 10.02 10.02 0 0 0 0 14.3l4.8 4.8 16.4 16.4 8.8 8.8a50.7 50.7 0 0 0 71.7 0 50.7 50.7 0 0 0 0-71.7l-8.8-8.8-16.4-16.4-4.8-4.8a10.449 10.449 0 0 0-14.5.2z" fill="#fff"/><path d="M71.85 229.324a53.521 53.521 0 0 1-37.971-15.7l-30-30A12.819 12.819 0 0 1 0 174.47a13.086 13.086 0 0 1 3.879-9.391 12.816 12.816 0 0 1 9.151-3.879c.444 0 .885.017 1.322.058q-.048-.54-.052-1.089a13.086 13.086 0 0 1 3.879-9.391 12.818 12.818 0 0 1 9.151-3.878 12.247 12.247 0 0 1 1.322.057 13.054 13.054 0 0 1-.052-1.087 13.074 13.074 0 0 1 3.879-9.391 12.815 12.815 0 0 1 9.151-3.879 12.489 12.489 0 0 1 1.321.057 13.479 13.479 0 0 1-.051-1.087 13.074 13.074 0 0 1 3.879-9.391 12.816 12.816 0 0 1 9.152-3.879c.427 0 .885.017 1.321.058q-.048-.54-.052-1.087a13.083 13.083 0 0 1 3.879-9.392 13.414 13.414 0 0 1 18.661-.279c.028.025.055.051.082.079l30 30a53.674 53.674 0 0 1-37.972 91.645zM13.114 167.2h-.046a6.882 6.882 0 0 0-4.919 2.094A7.151 7.151 0 0 0 6 174.432a6.887 6.887 0 0 0 2.1 4.921l30.026 30.026a47.7 47.7 0 0 0 67.458-67.458l-29.961-29.956a7.43 7.43 0 0 0-10.3.156 7.132 7.132 0 0 0-2.122 5.112 6.88 6.88 0 0 0 2.016 4.841l.106.105a3 3 0 0 1-4.215 4.269l-.108-.1a7.287 7.287 0 0 0-5.031-2.043 6.888 6.888 0 0 0-4.921 2.095 7.147 7.147 0 0 0-2.147 5.137 6.877 6.877 0 0 0 2.015 4.841l.106.106a3 3 0 0 1-4.215 4.269l-.107-.1a7.118 7.118 0 0 0-4.986-2.043h-.045a6.887 6.887 0 0 0-4.921 2.094 7.151 7.151 0 0 0-2.147 5.138 6.878 6.878 0 0 0 2.016 4.842c.036.034.07.069.1.1a3 3 0 0 1-4.215 4.27l-.107-.1a7.116 7.116 0 0 0-4.986-2.043h-.045a6.878 6.878 0 0 0-4.92 2.094 7.148 7.148 0 0 0-2.148 5.138 6.887 6.887 0 0 0 2.016 4.843c.036.034.07.069.105.1a3 3 0 0 1-4.216 4.269l-.106-.105a7.118 7.118 0 0 0-4.981-2.05z" fill="#222433"/><path d="m62.7 123.7 28.1 28.2" fill="#fff"/><path d="M90.8 154.9a2.988 2.988 0 0 1-2.125-.883l-28.1-28.2a3 3 0 1 1 4.25-4.235l28.1 28.2A3 3 0 0 1 90.8 154.9z" fill="#222433"/><path d="m48.3 138.1 28.2 28.1" fill="#fff"/><path d="M76.5 169.2a2.986 2.986 0 0 1-2.117-.875l-28.2-28.1a3 3 0 1 1 4.234-4.25l28.2 28.1A3 3 0 0 1 76.5 169.2z" fill="#222433"/><path d="m34 152.4 28.2 28.1" fill="#fff"/><path d="M62.2 183.5a2.992 2.992 0 0 1-2.117-.875l-28.2-28.1a3 3 0 1 1 4.234-4.25l28.2 28.1A3 3 0 0 1 62.2 183.5z" fill="#222433"/><path d="m19.7 166.7 28.1 28.2" fill="#fff"/><path d="M47.8 197.9a2.988 2.988 0 0 1-2.125-.883l-28.1-28.2a3 3 0 1 1 4.25-4.235l28.1 28.2A3 3 0 0 1 47.8 197.9z" fill="#222433"/><path d="M189.4 3a11.822 11.822 0 0 0-11.8 11.8A11.822 11.822 0 0 0 165.8 3 11.822 11.822 0 0 0 154 14.8 11.822 11.822 0 0 0 142.2 3a11.822 11.822 0 0 0-11.8 11.8A11.822 11.822 0 0 0 118.6 3a11.822 11.822 0 0 0-11.8 11.8A11.822 11.822 0 0 0 95 3a11.822 11.822 0 0 0-11.8 11.8v49.5a59.087 59.087 0 0 0 59.1 59.1 59.087 59.087 0 0 0 59.1-59.1V14.8a12.06 12.06 0 0 0-12-11.8z" fill="#fff"/><g fill="#222433"><path d="M142.3 126.4a62.17 62.17 0 0 1-62.1-62.1V14.8a14.8 14.8 0 0 1 26.6-8.924 14.786 14.786 0 0 1 23.6 0 14.786 14.786 0 0 1 23.6 0 14.786 14.786 0 0 1 23.6 0A14.788 14.788 0 0 1 189.4 0a15.02 15.02 0 0 1 15 14.708V64.3a62.17 62.17 0 0 1-62.1 62.1zM95 6a8.81 8.81 0 0 0-8.8 8.8v49.5a56.1 56.1 0 0 0 112.2 0V14.8a9.027 9.027 0 0 0-9-8.8 8.809 8.809 0 0 0-8.8 8.8 3 3 0 1 1-6 0 8.8 8.8 0 1 0-17.6 0 3 3 0 1 1-6 0 8.8 8.8 0 0 0-17.6 0 3 3 0 1 1-6 0 8.8 8.8 0 0 0-17.6 0 3 3 0 0 1-6 0A8.809 8.809 0 0 0 95 6z"/><path d="M177.6 63.3a3 3 0 0 1-3-3V13.9a3 3 0 0 1 6 0v46.4a3 3 0 0 1-3 3zm-23.6 0a3 3 0 0 1-3-3V13.9a3 3 0 0 1 6 0v46.4a3 3 0 0 1-3 3zm-23.6 0a3 3 0 0 1-3-3V13.9a3 3 0 0 1 6 0v46.4a3 3 0 0 1-3 3zm-23.7 0a3 3 0 0 1-3-3V13.9a3 3 0 0 1 6 0v46.4a3 3 0 0 1-3 3zm88.5 257.2a3 3 0 0 1-3-3v-68.4a86.933 86.933 0 0 0-25.621-61.879A92.894 92.894 0 0 1 139.2 121.1v-18a3 3 0 0 1 6 0v18a86.935 86.935 0 0 0 25.622 61.879A92.892 92.892 0 0 1 198.2 249.1v68.4a3 3 0 0 1-3 3z"/><path d="M195.2 311.5a3 3 0 0 1-3-3v-31.8a157.873 157.873 0 0 1 47.611-112.754l5.309-5.108a3 3 0 1 1 4.161 4.324l-5.3 5.1A151.832 151.832 0 0 0 198.2 276.7v31.8a3 3 0 0 1-3 3z"/><path d="M197.7 303.6a2.991 2.991 0 0 1-2.121-.879l-97.5-97.5a3 3 0 0 1 4.243-4.242l97.5 97.5a3 3 0 0 1-2.122 5.121z"/></g><path d="M197.5 344.9h-5.9a67.793 67.793 0 0 0-67.8 67.8 67.793 67.793 0 0 0 67.8 67.8h5.9a67.793 67.793 0 0 0 67.8-67.8 67.793 67.793 0 0 0-67.8-67.8z" fill="#82b1ff"/><path d="M194.5 344.9 152 290h85z" fill="#82b1ff"/></svg></g><g transform="translate(629.0 466.0) rotate(0.0 250.5 103.5) scale(0.6723027375201288 0.6747066492829205)"><svg width="745.2" height="306.8" viewBox="0 0 745.2 306.8"><path d="M227.886 3.136 742.2 3l-79.5 206.1h-516z" fill="#fff"/><g fill="#222433"><path d="M662.7 212.1h-516a3 3 0 0 1-2.791-4.1L225.1 2.036a3 3 0 0 1 2.79-1.9L742.2 0a3 3 0 0 1 2.8 4.08l-79.5 206.1a3 3 0 0 1-2.8 1.92zm-511.593-6h509.535L737.827 6l-507.9.134z"/><path d="M146.7 212.1H24.1a3 3 0 1 1 0-6h122.6a3 3 0 0 1 0 6z"/><path d="M167.9 306.8a3 3 0 0 1-2.924-2.345l-21.2-94.7a3 3 0 1 1 5.856-1.31l21.2 94.7a3 3 0 0 1-2.272 3.583 3.045 3.045 0 0 1-.66.072zM3 306.8a2.942 2.942 0 0 1-.655-.073 3 3 0 0 1-2.276-3.58l21.1-94.7a3 3 0 1 1 5.855 1.3l-21.1 94.7A3 3 0 0 1 3 306.8zm679.9 0a3 3 0 0 1-2.924-2.348l-21.1-94.7a3 3 0 1 1 5.856-1.3l21.1 94.7a3 3 0 0 1-2.275 3.58 2.958 2.958 0 0 1-.657.068zm-164.9 0a3 3 0 0 1-2.931-3.656l21.2-94.7a3 3 0 0 1 5.856 1.31l-21.2 94.7A3 3 0 0 1 518 306.8z"/></g></svg></g><g transform="translate(294.0 44.0) rotate(0.0 464.0 316.0) translate(0.0 0.0) scale(0.6700331984121368 0.672208129251158)"><svg width="1385.006" height="934.234" viewBox="0 0 1385.006 934.234"><path d="m1080.585 350.897 6.124-11.851-56.008-24.755-21.949 42.476 25.251 4.765z" fill="#fff"/><path d="M1034 364.532a3.071 3.071 0 0 1-.557-.052l-25.251-4.765a3 3 0 0 1-2.108-4.326l21.949-42.475a3 3 0 0 1 3.878-1.367l56.008 24.755a3 3 0 0 1 1.452 4.121l-6.123 11.85a3 3 0 0 1-2 1.548l-46.583 10.636a3.02 3.02 0 0 1-.665.075zm-20.737-9.967 20.678 3.9 44.616-10.187 4.02-7.781-50.51-22.325z" fill="#222433"/><path d="M1030.54 227.268a21.712 21.712 0 0 0-12.8-4.1 22 22 0 0 0 0 44 19.318 19.318 0 0 0 12.113-3.624c-.2.9.287 1.424.187 2.324a50.9 50.9 0 1 0 90.3.2c-.1-1 .6-2.2.4-3.2 3.6 2.6 7.1 4.3 11.9 4.3a22 22 0 1 0-.1-44 21.712 21.712 0 0 0-12.8 4.1l-6.74-14.736-39-21-37 18z" fill="#fff"/><path d="M1075.14 343.368a53.961 53.961 0 0 1-53.9-53.9 53.379 53.379 0 0 1 3.964-20.292 25.816 25.816 0 0 1-7.464.991 25 25 0 1 1 11.232-47.356l5.213-14.307a3 3 0 0 1 1.506-1.67l37-18a3 3 0 0 1 2.735.055l39 21a3 3 0 0 1 1.306 1.4l5.328 11.655a24.814 24.814 0 0 1 11.481-2.772 25 25 0 1 1 .1 50 20.447 20.447 0 0 1-7.789-1.5 53.872 53.872 0 0 1-49.711 74.7zm-42.32-79.382.025.1a5.867 5.867 0 0 1 .176 2.114 3 3 0 0 1-.321 1.057 47.9 47.9 0 1 0 90.34 22.214 48.413 48.413 0 0 0-5.368-22.029 3 3 0 0 1-.318-1.074 7.215 7.215 0 0 1 .287-2.524c.043-.172.106-.419.127-.554a3 3 0 0 1 4.728-2.852c3.1 2.24 6.013 3.732 10.144 3.732a19 19 0 1 0-.1-38 18.73 18.73 0 0 0-11.04 3.53 3 3 0 0 1-4.485-1.185l-6.318-13.819-36.76-19.794-34.527 16.8-6.048 16.6a3 3 0 0 1-4.575 1.4 18.728 18.728 0 0 0-11.044-3.532 19 19 0 0 0 0 38 16.42 16.42 0 0 0 10.358-3.056 3 3 0 0 1 4.723 2.874z" fill="#222433"/><path d="M1121.641 255.068a3 3 0 0 1-1.864-5.352l14.4-11.4a3 3 0 0 1 3.724 4.705l-14.4 11.4a2.994 2.994 0 0 1-1.86.647zm-93.003 0a3 3 0 0 1-1.861-.647l-14.4-11.4a3 3 0 0 1 3.724-4.705l14.4 11.4a3 3 0 0 1-1.864 5.352zm34.406 59.401c-.094 0-.187 0-.281-.013a3 3 0 0 1-2.71-3.265 11.9 11.9 0 0 0-3.6-9.671 12.584 12.584 0 0 0-9.8-3.659 3 3 0 1 1-.418-5.986 18.556 18.556 0 0 1 14.431 5.371 17.85 17.85 0 0 1 5.366 14.5 3 3 0 0 1-2.988 2.723z" fill="#222433"/><path d="M1030.54 227.268a48.066 48.066 0 0 1-1-10.1 45.553 45.553 0 0 1 91.1.8 42.343 42.343 0 0 1-1 9.4l-8-7.8a17.323 17.323 0 0 0-24.4.1 17.444 17.444 0 0 1-24.5 0 17.416 17.416 0 0 0-24.4-.1z" fill="#fff"/><g fill="#222433"><path d="M1119.64 230.368a3 3 0 0 1-2.1-.852l-8-7.8a14.274 14.274 0 0 0-20.2.088 20.541 20.541 0 0 1-28.711 0 14.451 14.451 0 0 0-20.2-.084l-7.783 7.683a3 3 0 0 1-5.042-1.512 51.185 51.185 0 0 1-1.065-10.723 48.553 48.553 0 0 1 97.1.8 45.161 45.161 0 0 1-1.074 10.06 3 3 0 0 1-2.926 2.339zm-69.112-18.713a20.194 20.194 0 0 1 14.332 5.892 14.512 14.512 0 0 0 20.274-.016 20.227 20.227 0 0 1 28.611-.1l3.785 3.69a44.27 44.27 0 0 0 .11-3.152 42.553 42.553 0 0 0-85.1-.753c0 1.279.044 2.52.134 3.73l3.558-3.513a20.48 20.48 0 0 1 14.296-5.778zm24.612 73.013a3.018 3.018 0 0 1-1.1-.209l-10.4-4.1a3 3 0 1 1 2.2-5.582l6.3 2.484v-24.693a3 3 0 1 1 6 0v29.1a3 3 0 0 1-3 3z"/><path d="M1049.54 282.568a23.1 23.1 0 1 1 23.1-23.1 23.127 23.127 0 0 1-23.1 23.1zm0-40.2a17.1 17.1 0 1 0 17.1 17.1 17.12 17.12 0 0 0-17.1-17.1zm51.1 40.2a23.1 23.1 0 1 1 23.1-23.1 23.125 23.125 0 0 1-23.1 23.1zm0-40.2a17.1 17.1 0 1 0 17.1 17.1 17.12 17.12 0 0 0-17.1-17.1z"/><path d="M1081.739 255.568h-13.3a3 3 0 0 1 0-6h13.3a3 3 0 0 1 0 6zm39.034-1.996h-.007a3 3 0 0 1-2.993-3.008l.067-24a3 3 0 0 1 3-2.991h.008a3 3 0 0 1 2.992 3.008l-.067 24a3 3 0 0 1-3 2.991zm-92.132 1.496h-.083a3 3 0 0 1-2.917-3.081l.7-25.5a3 3 0 1 1 6 .164l-.7 25.5a3 3 0 0 1-3 2.917z"/><circle cx="1100.64" cy="266.968" r="4.1"/><circle cx="1049.54" cy="266.968" r="4.1"/></g><path d="M467.15 376.36 654.1 273.7a112.689 112.689 0 0 1 142.6 36.8l282.1 393.2-8.6 28.9c-18.2 61.5-74.409 105-138.509 105-25.5 0-49.791-12.7-66.091-31.9-1.8-2.1-3.5-4.4-5.1-6.7L667.8 520.4z" fill="#fff"/><path d="M667.873 520.3 453.4 366.5a112.811 112.811 0 0 0-178.5 88.9l-7.1 290.3h227.3V674l183.4 131.3c28.1 20.1 63.382 32.6 97.882 32.5L932 837.532l-23-4c-33.546-8.205-51.549-36.808-70-66zM764.4 124.6l204.5-51.8c.3.4.6.9.9 1.4-8.7 13.2-.6 33.8 14 38.8a18.333 18.333 0 0 0 8.3 1.6c7.5 0 12.4-2.6 15.2-6.6-6.4 14.3-22.5 31.2-17.9 41.6 7.5 17 43.1-11.1 55.1-30a18.469 18.469 0 0 0 2.9-9.6c2 8 4.5 17.5 7.7 26.5 5.8 16.7 13.7 31.7 23.9 31.7 11.6-.2 9.9-21.7 4.9-43.5a323.006 323.006 0 0 0-13.1-43c-5.4-13.3-10.9-25-14.9-31.3-3-4.6-6.1-9.5-9.4-14.5C1028.3 8.3 1009.6 3 969.9 3H771.8c-52.5 0-113.9 30.8-130.4 74.4s-9.1 71 13.9 112l6.224 12.666" fill="#fff"/><path d="M661.526 205.067a3 3 0 0 1-2.694-1.678l-6.189-12.589c-22.714-40.508-31.12-69.35-14.048-114.458C656.438 29.186 721.632 0 771.8 0h198.1c39.084 0 59.781 4.945 79.105 34.249 1.966 2.978 3.862 5.923 5.708 8.79q1.883 2.922 3.7 5.723c3.976 6.26 9.5 17.844 15.166 31.809a327.684 327.684 0 0 1 13.247 43.466c5.118 22.314 5.182 36.869.187 43.251a10.006 10.006 0 0 1-7.961 3.912c-10.161 0-18.906-11.028-26.786-33.716-1.942-5.46-3.625-11.091-5.1-16.482-.047.075-.1.15-.143.224-9.847 15.509-35.424 37.694-50.473 36.582a11.188 11.188 0 0 1-9.893-7c-3.742-8.461 2.828-18.863 9.785-29.876a434.639 434.639 0 0 0 2.591-4.131 28.485 28.485 0 0 1-6.931.8 21.507 21.507 0 0 1-9.458-1.826c-8-2.813-14.609-9.867-17.7-18.906a28.8 28.8 0 0 1 .1-20l-199.907 50.64a3 3 0 1 1-1.473-5.817l204.5-51.8A3.007 3.007 0 0 1 971.3 71a19.3 19.3 0 0 1 1.071 1.655 3 3 0 0 1-.068 3.193c-3.431 5.206-4.043 12.16-1.68 19.079 2.477 7.255 7.9 13.092 14.146 15.233a2.861 2.861 0 0 1 .37.155 15.589 15.589 0 0 0 6.961 1.285c5.984 0 10.271-1.79 12.742-5.321a3 3 0 0 1 5.2 2.946 125.826 125.826 0 0 1-8.525 14.915c-5.81 9.2-11.819 18.709-9.37 24.247a5.245 5.245 0 0 0 4.853 3.438c11.344.873 35.33-18.652 44.97-33.833a15.561 15.561 0 0 0 2.433-8.087 3 3 0 0 1 5.909-.633c2 8 4.468 17.368 7.617 26.223 8.529 24.555 16.167 29.7 21.073 29.7a3.951 3.951 0 0 0 3.288-1.609c3.663-4.682 3.186-18.613-1.312-38.22a320.636 320.636 0 0 0-12.953-42.535c-5.544-13.655-10.883-24.888-14.655-30.827-1.2-1.842-2.438-3.764-3.7-5.721-1.835-2.849-3.719-5.775-5.673-8.735C1026.081 10.384 1007.48 6 969.9 6H771.8c-48.175 0-110.656 27.7-127.594 72.462-16.341 43.178-8.6 69.7 13.71 109.47.027.048.052.1.076.145l6.225 12.666a3 3 0 0 1-2.691 4.324z" fill="#222433"/><path d="M958 338.8a189.476 189.476 0 0 1-120.6-89l-73-125.1-127.1 76.6 36.579 65.1c14.331-1.9 27.817-6.234 42.4-3.587a149.438 149.438 0 0 1 37.021 11.955c22.2 10.536 33.1 24.308 48.231 43.467 38.941 8.887 159.9 40.681 187.623 54.889 11.46-1.007 55.08-14.1 55.413-14.127zm248.6 233.7s-26.361 9.345-32.4 8.949l86.022 80.757c-1.333-6.65.135-14.874-.578-21.607-2.445-23.084-5.735-46.08-8.429-69.136-1.313-11.23.291-23.98-3.459-34.741-2.108-6.049-6.656-5.415-12.407-4.375-7.51 1.358-15.32 3.36-22.689.339a30.74 30.74 0 0 1-6.491-3.673c-.217 7.856.431 43.487.431 43.487zm-155.289 44.416c-9.472 3.093-18.963 5.9-28.548 8.292 1.143 2.088 2.333 4.149 3.507 6.219 30.239.052 71.223-.089 80.365.576l13.3-34.343c-23.542 3.865-46.024 11.877-68.624 19.256z" fill="#5a38fd"/><path d="M1027.14 632.5h86l-21.54 38.6h-36.906z" fill="#fff"/><path d="M1091.6 674.1h-36.907a3 3 0 0 1-2.441-1.256l-27.553-38.6a3 3 0 0 1 2.442-4.743h86a3 3 0 0 1 2.62 4.462l-21.54 38.6a3 3 0 0 1-2.621 1.537zm-35.362-6h33.6l18.192-32.6h-75.063z" fill="#222433"/><path d="M801.532 318.235 996.1 372.4v217.03z" fill="#fff"/><path d="M996.1 592.43a3 3 0 0 1-2.437-1.251L799.1 319.984a3 3 0 0 1 3.242-4.639l194.568 54.166a3 3 0 0 1 2.2 2.889v217.03a3 3 0 0 1-3 3zM808.937 323.411 993.1 580.1V374.679z" fill="#222433"/><path d="M1020.966 624.089 1206.6 572.5V313.8l-210.5 58.6v217.03z" fill="#fff"/><path d="M1020.966 627.09a3 3 0 0 1-2.438-1.251l-24.865-34.66a3 3 0 0 1-.563-1.749V372.4a3 3 0 0 1 2.2-2.889l210.5-58.6a3 3 0 0 1 3.8 2.89V572.5a3 3 0 0 1-2.2 2.89l-185.635 51.59a3 3 0 0 1-.799.11zM999.1 588.466l23.082 32.172L1203.6 570.22V317.749l-204.5 56.93z" fill="#222433"/><path d="M265.491 538.827c-36.4 22.9-82.291 16.373-111.091-15.327l-68.8-71.3A64.535 64.535 0 0 0 3 441.1l100.5 190 91.5 59.1-47.4 24.3 31.2 59.1 89-46.954 4.2-177.114z" fill="#fff"/><path d="M178.8 776.6a3 3 0 0 1-2.657-1.6l-31.2-59.1a3 3 0 0 1 1.285-4.07l42.78-21.93-87.136-56.28a3.006 3.006 0 0 1-1.024-1.118L.348 442.5a3 3 0 0 1 1.052-3.94 67.535 67.535 0 0 1 86.415 11.62l68.74 71.237c28.071 30.9 72.184 36.983 107.334 14.871a3 3 0 0 1 4.162.98l6.511 10.7A3.006 3.006 0 0 1 275 549.6l-4.2 177.114a3 3 0 0 1-1.6 2.582l-89 46.955a2.99 2.99 0 0 1-1.4.349zm-27.132-60.817 28.382 53.764 84.79-44.735 4.14-174.473-4.5-7.393c-37.208 21.8-82.991 14.836-112.3-17.43l-68.739-71.233a61.9 61.9 0 0 0-76.459-12.069l98.8 186.792 90.842 58.673a3 3 0 0 1-.26 5.191z" fill="#222433"/><path d="M313 747.1c3.2 42.9-24 81-65.4 91.6l-95.2 27.5c-30.7 7.9-50.8 36.1-48.5 67.9l209.664 3.085L414 881l.3 54.3h65.8l.2-187.5" fill="#fff"/><path d="M313.564 940.185h-.044L103.856 937.1a3 3 0 0 1-2.948-2.783 68.784 68.784 0 0 1 12.425-44.873 67.849 67.849 0 0 1 38.319-26.144l95.114-27.477c40.389-10.342 66.358-46.723 63.243-88.494a3 3 0 1 1 5.982-.447 91.439 91.439 0 0 1-16.524 59.879 90.338 90.338 0 0 1-51.123 34.85l-95.111 27.476c-28.644 7.373-47.4 32.657-46.482 62.06l206.049 3.027 99.732-55.792a3 3 0 0 1 4.465 2.6l.283 51.317h59.82l.2-184.5a3 3 0 0 1 3-3 3 3 0 0 1 3 3l-.2 187.5a3 3 0 0 1-3 3h-65.8a3 3 0 0 1-3-2.984l-.272-49.217-96 53.7a3.005 3.005 0 0 1-1.464.387z" fill="#222433"/><path d="M710.8 721.3a12.736 12.736 0 0 0-17.9 0 12.657 12.657 0 1 0-17.9-17.9 12.657 12.657 0 0 0-17.9-17.9 12.657 12.657 0 1 0-17.9-17.9 12.657 12.657 0 0 0-17.9-17.9l-37.5 37.5a63.009 63.009 0 0 0-18.31 39.719c6.08 2.4 10.7 7.19 15.945 11.428 8.61 6.958 17.866 13.054 27.106 19.138 15.49 10.2 30.34 21.2 44.895 32.645A63.01 63.01 0 0 0 673.3 776.7l37.5-37.5a12.736 12.736 0 0 0 0-17.9z" fill="#82b1ff"/><path d="M658.4 758.8a3 3 0 0 1-2.121-5.121l35.2-35.2a3 3 0 1 1 4.243 4.242l-35.2 35.2a2.989 2.989 0 0 1-2.122.879zm-17.9-17.9a3 3 0 0 1-2.124-5.118l35.1-35.2a3 3 0 1 1 4.248 4.236l-35.1 35.2a2.989 2.989 0 0 1-2.124.882zM622.6 723a3 3 0 0 1-2.124-5.118l35.1-35.2a3 3 0 0 1 4.248 4.237l-35.1 35.2a2.986 2.986 0 0 1-2.124.881zm-18-18a3 3 0 0 1-2.118-5.124l35.2-35.1a3 3 0 0 1 4.236 4.248l-35.2 35.1a2.99 2.99 0 0 1-2.118.876z" fill="#222433"/><path d="M361.4 609.1a12.718 12.718 0 0 0 12.7 12.7 12.718 12.718 0 0 0-12.7 12.7 12.718 12.718 0 0 0 12.7 12.7 12.718 12.718 0 0 0-12.7 12.7 12.718 12.718 0 0 0 12.7 12.7 12.718 12.718 0 0 0-12.7 12.7 12.718 12.718 0 0 0 12.7 12.7 12.718 12.718 0 0 0-12.7 12.7 12.718 12.718 0 0 0 12.7 12.7H427a63.248 63.248 0 0 0 63.3-63.3 63.248 63.248 0 0 0-63.3-63.3h-52.9a12.141 12.141 0 0 0-12.7 12.3z" fill="#82b1ff"/><path d="M422.8 624.8H373a3 3 0 0 1 0-6h49.8a3 3 0 0 1 0 6zm0 25.3H373a3 3 0 0 1 0-6h49.8a3 3 0 1 1 0 6zm0 25.3H373a3 3 0 0 1 0-6h49.8a3 3 0 1 1 0 6zm0 25.4H373a3 3 0 0 1 0-6h49.8a3 3 0 0 1 0 6z" fill="#222433"/><path d="M402.4 349.7a12.718 12.718 0 0 0-12.7 12.7 12.7 12.7 0 0 0-25.4 0 12.717 12.717 0 0 0-9.755-12.341 94.522 94.522 0 0 0-13.521 5.327 12.618 12.618 0 0 0-2.124 7.014 12.6 12.6 0 0 0-1.191-5.333c-20.25 10.8-36.08 28.373-48.032 48.276a5.047 5.047 0 0 1-1.577 1.667v8.29a63.3 63.3 0 0 0 126.6 0v-52.9a12.083 12.083 0 0 0-12.3-12.7z" fill="#82b1ff"/><path d="M389.7 414.1a3 3 0 0 1-3-3v-49.8a3 3 0 0 1 6 0v49.8a3 3 0 0 1-3 3zm-25.3 0a3 3 0 0 1-3-3v-49.8a3 3 0 0 1 6 0v49.8a3 3 0 0 1-3 3zm-25.3 0a3 3 0 0 1-3-3v-49.8a3 3 0 0 1 6 0v49.8a3 3 0 0 1-3 3zm-25.3 0a3 3 0 0 1-3-3v-37.138a3 3 0 0 1 6 0V411.1a3 3 0 0 1-3 3z" fill="#222433"/><path d="M662.4 521.9a12.736 12.736 0 0 0-17.9 0 12.657 12.657 0 0 0-17.9-17.9 12.61 12.61 0 0 0 3.669-8.814c-5.424-3.957-58.482-42.782-58.966-43.29l-4.4 4.4-20.5 20.5-11 11a63.286 63.286 0 0 0 89.5 89.5l37.5-37.5a12.555 12.555 0 0 0-.003-17.896z" fill="#82b1ff"/><path d="M610 559.4a3 3 0 0 1-2.121-5.121l35.2-35.2a3 3 0 0 1 4.242 4.242l-35.2 35.2a2.991 2.991 0 0 1-2.121.879zm-17.9-17.9a3 3 0 0 1-2.121-5.121l35.2-35.2a3 3 0 0 1 4.242 4.242l-35.2 35.2a2.992 2.992 0 0 1-2.121.879zm-17.9-17.9a3 3 0 0 1-2.121-5.121l35.2-35.2a3 3 0 1 1 4.242 4.242l-35.2 35.2a2.989 2.989 0 0 1-2.121.879zm-17.9-17.9a3 3 0 0 1-2.121-5.121l35.2-35.2a3 3 0 0 1 4.242 4.242l-35.2 35.2a2.991 2.991 0 0 1-2.121.879z" fill="#222433"/><path d="M1014.4 616.8a12.713 12.713 0 0 0-17.6-3.5 12.713 12.713 0 0 0 3.5-17.6 12.713 12.713 0 0 0-17.6-3.5 12.713 12.713 0 0 0 3.5-17.6 12.713 12.713 0 0 0-17.6-3.5 12.713 12.713 0 0 0 3.5-17.6 12.713 12.713 0 0 0-17.6-3.5 12.713 12.713 0 0 0 3.5-17.6 12.713 12.713 0 0 0-17.6-3.5l-7 4.7-24.1 16.2-12.9 8.6a63.3 63.3 0 0 0-17.4 87.8 63.3 63.3 0 0 0 87.8 17.4l12.9-8.6 24.1-16.2 7-4.7a12.247 12.247 0 0 0 3.6-17.3z" fill="#82b1ff"/><path d="M956.3 643.5a3 3 0 0 1-1.674-5.491l41.3-27.7a3 3 0 1 1 3.341 4.983l-41.3 27.7a2.979 2.979 0 0 1-1.667.508zm-14.1-21.1a3 3 0 0 1-1.671-5.493l41.4-27.7a3 3 0 1 1 3.335 4.986l-41.4 27.7a2.983 2.983 0 0 1-1.664.507zm-14.1-21a3 3 0 0 1-1.67-5.493l41.4-27.7a3 3 0 0 1 3.336 4.986l-41.4 27.7a2.979 2.979 0 0 1-1.666.507zM914 580.3a3 3 0 0 1-1.667-5.5l41.4-27.6a3 3 0 1 1 3.328 4.992l-41.4 27.6a2.988 2.988 0 0 1-1.661.508z" fill="#222433"/><path d="M781.8 423.5a12.7 12.7 0 0 0-2.1 17.8 12.7 12.7 0 0 0-17.8-2.1 12.7 12.7 0 0 0-2.1 17.8 12.7 12.7 0 0 0-17.8-2.1 12.7 12.7 0 0 0-2.1 17.8 12.7 12.7 0 0 0-17.8-2.1 12.7 12.7 0 0 0-2.1 17.8 12.7 12.7 0 0 0-17.8-2.1 12.7 12.7 0 0 0-2.1 17.8l5.2 6.6 18 22.8 9.6 12.2a63.207 63.207 0 0 0 88.9 10.5 63.207 63.207 0 0 0 10.5-88.9l-9.6-12.2-18-22.8-5.2-6.6a12.407 12.407 0 0 0-17.7-2.2z" fill="#82b1ff"/><path d="M809.9 482.5a3 3 0 0 1-2.358-1.144l-30.8-39.1a3 3 0 0 1 4.713-3.713l30.8 39.1a3 3 0 0 1-2.355 4.857zM790 498.2a3 3 0 0 1-2.359-1.144l-30.8-39.1a3 3 0 1 1 4.713-3.713l30.8 39.1A3 3 0 0 1 790 498.2zm-19.9 15.7a3 3 0 0 1-2.358-1.143l-30.8-39.1a3 3 0 1 1 4.713-3.713l30.8 39.1a3 3 0 0 1-2.355 4.856zm-19.9 15.7a2.992 2.992 0 0 1-2.358-1.143l-30.8-39.1a3 3 0 1 1 4.713-3.713l30.8 39.1a3 3 0 0 1-2.355 4.856z" fill="#222433"/><path d="m719 295.7-3.4-15.1-4.069-18.278c-5.189.364-41.232 3.555-57.431 12.378-4.309 2.347-57.487 32.138-61.947 34.178L595.4 323.3A63.322 63.322 0 0 0 719 295.7z" fill="#82b1ff"/><path d="M693.3 300.3a3 3 0 0 1-2.924-2.343l-7.379-32.835a3 3 0 0 1 5.854-1.317l7.378 32.835a3.007 3.007 0 0 1-2.929 3.66zm-24.7 5.6a3 3 0 0 1-2.925-2.345l-7.075-31.547a3 3 0 0 1 5.855-1.313l7.076 31.549a3 3 0 0 1-2.271 3.584 3.045 3.045 0 0 1-.66.072zm-24.8 5.5a3 3 0 0 1-2.926-2.35l-5.4-24.3a3 3 0 0 1 5.857-1.3l5.4 24.3a3 3 0 0 1-2.931 3.65zm-24.7 5.5a3 3 0 0 1-2.926-2.349l-3.986-17.931a3 3 0 0 1 5.858-1.3l3.985 17.931a3 3 0 0 1-2.931 3.649z" fill="#222433"/><path d="M950.5 735.5a12.718 12.718 0 0 0-12.7 12.7 12.7 12.7 0 1 0-25.4 0 12.7 12.7 0 1 0-25.4 0 12.7 12.7 0 1 0-25.4 0 12.7 12.7 0 1 0-25.4 0v16.547c1.287.473 28.413 41.146 37.478 50.267 13.642 13.726 34.142 19.941 50.859 22.4 4.236-.6 10.629 1.5 14.881.976 5.235-.641 8.3-3.465 13.557-3.414A63 63 0 0 0 962.8 801.1v-52.9a12.141 12.141 0 0 0-12.3-12.7z" fill="#82b1ff"/><path d="M937.9 800a3 3 0 0 1-3-3v-49.8a3 3 0 0 1 6 0V797a3 3 0 0 1-3 3zm-25.4 0a3 3 0 0 1-3-3v-49.8a3 3 0 0 1 6 0V797a3 3 0 0 1-3 3zm-25.3 0a3 3 0 0 1-3-3v-49.8a3 3 0 0 1 6 0V797a3 3 0 0 1-3 3zm-25.3 0a3 3 0 0 1-3-3v-49.8a3 3 0 0 1 6 0V797a3 3 0 0 1-3 3z" fill="#222433"/><path d="M603.278 476.66A12.653 12.653 0 0 0 586.9 457.6a12.689 12.689 0 1 0-14.1-21.1 12.689 12.689 0 0 0-14.1-21.1 12.689 12.689 0 1 0-14.1-21.1 12.689 12.689 0 1 0-14.1-21.1l-7 4.7-23.8 16-5.539 3.693c9.3 5.343 108.308 78.487 109.117 79.067z" fill="#82b1ff"/><path d="M582.818 463.3a3 3 0 0 1-1.66-5.5l4.984-3.3a3 3 0 1 1 3.315 5l-4.984 3.3a3 3 0 0 1-1.655.5zM560.8 447.515a3 3 0 0 1-1.661-5.5l13-8.615a3 3 0 1 1 3.315 5l-13 8.615a2.986 2.986 0 0 1-1.654.5zm-22.015-15.788a3 3 0 0 1-1.66-5.5l21.017-13.927a3 3 0 1 1 3.315 5l-21.018 13.927a2.984 2.984 0 0 1-1.654.5zm-22.03-15.798a3 3 0 0 1-1.663-5.5L544.04 391.2a3 3 0 0 1 3.32 5l-28.948 19.23a2.994 2.994 0 0 1-1.657.499z" fill="#222433"/><path d="m1078.8 704.7 12.8-33.6-35.6.432z" fill="#fff"/><path d="M1078.8 707.7a3 3 0 0 1-2.472-1.3l-22.8-33.168a3 3 0 0 1 2.437-4.7l35.6-.432h.036a3 3 0 0 1 2.8 4.069l-12.8 33.6a3 3 0 0 1-2.447 1.911 3.053 3.053 0 0 1-.354.02zm-17.141-33.236 16.374 23.823 9.194-24.133zM495.1 678a3 3 0 0 1-3-3v-83.2a3 3 0 0 1 6 0v66.691l15.992-42.547a3 3 0 1 1 5.617 2.111l-21.8 58A3 3 0 0 1 495.1 678zm172.7-153.6h-.1a3 3 0 0 1-2.9-3.1l1.6-49a3 3 0 0 1 3-2.9h.1a3 3 0 0 1 2.9 3.1l-1.6 49a3 3 0 0 1-3 2.9z" fill="#222433"/><path d="M1381.9 642.6c-1.2-23.3-17.3-53.8-34.1-83.1a332.167 332.167 0 0 0-62.9-78.7l-41.5-38.2c-4.3-3.2-15.8-11.4-35.7-24.1-26-16.6-108.2-42.7-113.3-22.3-3.1 12.4 19.7 14.9 59 29.9-37.1-7.2-64.8-9.8-66.5 3.2s35.8 20.2 64.5 25.5c-19.6 5-46.5 10.8-46.1 21 .5 14.7 23.6 10.7 39.2 9.7 34.5-2.4 42.6 24.8 57.5 40.8 9.9 10.6 30 12.6 43.5 3.4l13.9 126.3a61.778 61.778 0 0 0 61.3 54.9c36.6.1 63.2-28.9 61.2-68.3z" fill="#fff"/><path d="M1320.886 713.9h-.194a64.674 64.674 0 0 1-64.273-57.566l-13.4-121.724c-14.24 7.048-33.066 4.6-43.214-6.263a128.5 128.5 0 0 1-10.156-13.047c-10.444-14.666-20.312-28.529-44.944-26.807-1.93.123-3.957.292-6.042.465-11.969.992-25.536 2.117-32.29-3.89a12.316 12.316 0 0 1-4.074-9.167c-.4-10.29 16.572-15.847 35.232-20.687-31.467-6.238-55.32-13.217-53.608-26.3a10.908 10.908 0 0 1 4.65-7.673c5.466-3.938 15.447-5.067 32.333-3.315-9.26-3.092-16.632-5.658-21.586-8.457-2.456-1.388-9.93-5.611-7.833-13.994.612-2.449 2.407-5.792 7.484-7.813 21.419-8.525 87.986 14.04 110.34 28.312 21.676 13.834 32.941 22.038 35.877 24.222a3.079 3.079 0 0 1 .241.2l41.5 38.2a334.693 334.693 0 0 1 63.47 79.415c16.025 27.947 33.227 59.824 34.494 84.438 1.039 20.469-5.364 39.061-18.031 52.351-11.742 12.321-28.062 19.1-45.976 19.1zM1245.5 526.7a3 3 0 0 1 2.982 2.672l13.9 126.3A58.68 58.68 0 0 0 1320.7 707.9h.177c16.264 0 31.043-6.118 41.645-17.241 11.518-12.085 17.336-29.1 16.382-47.9-1.2-23.293-18.028-54.417-33.707-81.763A328.673 328.673 0 0 0 1282.865 483l-41.381-38.09c-3.08-2.287-14.187-10.349-35.4-23.885-23.466-14.982-86.524-35.111-104.893-27.8-3.286 1.308-3.735 3.1-3.883 3.694-1.51 6.043 7.672 9.375 28.587 16.333 8.306 2.762 17.719 5.894 28.573 10.037a3 3 0 0 1-1.641 5.748c-21.927-4.257-52.077-9.189-60.744-2.94a4.992 4.992 0 0 0-2.21 3.582c-.3 2.283 1.746 6.928 18.791 12.393 12.074 3.87 27.361 6.829 43.279 9.768a3 3 0 0 1 .2 5.858c-1.647.42-3.345.846-5.076 1.279-14.6 3.66-39.038 9.787-38.767 16.7a6.391 6.391 0 0 0 2.065 4.9c4.833 4.3 17.57 3.243 27.807 2.393 2.123-.175 4.188-.347 6.138-.472 27.973-1.934 39.8 14.661 50.231 29.313a122.24 122.24 0 0 0 9.656 12.436c9.109 9.754 27.621 11.142 39.615 2.965a3.007 3.007 0 0 1 1.688-.512zM931.691 841.6c-25.3 0-50.857-12.321-68.379-32.959a85.87 85.87 0 0 1-5.275-6.928L665.628 523.534 465.4 379.8a3 3 0 0 1 .305-5.068l186.95-102.66c.037-.02.075-.04.113-.058a115.688 115.688 0 0 1 146.4 37.78l282.071 393.159a3 3 0 0 1 .438 2.6l-8.6 28.9a151.82 151.82 0 0 1-53.1 77.093 144.538 144.538 0 0 1-88.286 30.054zM472.766 377.7 669.55 518.963a3.009 3.009 0 0 1 .716.73l192.7 278.6a80.151 80.151 0 0 0 4.909 6.455c16.405 19.323 40.258 30.852 63.814 30.852 61.937 0 117.711-42.294 135.632-102.851l8.182-27.5-281.242-392c-30.759-44.4-90.395-59.8-138.775-35.889z" fill="#222433"/><path d="m272.276 550.1-29.735-49.4 31.7-17.408z" fill="#fff"/><path d="M272.276 553.1a3 3 0 0 1-2.57-1.453l-29.735-49.4a3 3 0 0 1 1.126-4.177l31.7-17.408a3 3 0 0 1 4.443 2.718l-1.966 66.806a3 3 0 0 1-3 2.912zm-25.555-51.271 22.857 37.971 1.511-51.353z" fill="#222433"/><path d="M775.98 841.8c-33.692 0-69.833-12.039-99.225-33.063L498.1 680.837V746.7a3 3 0 0 1-3 3H267.8a3 3 0 0 1-3-3.073l7.1-290.3a115.81 115.81 0 0 1 183.243-91.268l214.478 153.8a2.99 2.99 0 0 1 .719.731l171.13 247.235.069.1.144.229c18.367 29.059 35.718 56.508 67.935 64.436l22.9 3.982a3 3 0 0 1-.508 5.956l-155.62.27zM495.1 672a3 3 0 0 1 1.747.56l183.4 131.3c28.509 20.393 63.54 32.023 96.128 31.942l125.517-.218c-30.621-10.381-48.221-38.231-65.28-65.22l-.111-.177L665.7 523.432 451.652 369.937A109.813 109.813 0 0 0 277.9 456.471L270.874 743.7H492.1V675a3 3 0 0 1 3-3zm269.3-544.3a2.972 2.972 0 0 1-.375-.023l-51.4-6.4a3 3 0 1 1 .742-5.953l51.4 6.4a3 3 0 0 1-.367 5.977zm284.1-10.8a3 3 0 0 1-2.858-2.095l-7.1-22.4a3 3 0 1 1 5.719-1.812l7.1 22.4a3 3 0 0 1-2.86 3.907zm-60.4-17.4a3 3 0 0 1-2.328-1.106l-19.3-23.7a3 3 0 1 1 4.652-3.789l19.3 23.7A3 3 0 0 1 988.1 99.5zm257.3 433.3a3 3 0 0 1-1.851-5.363l14.3-11.2a3 3 0 0 1 3.7 4.725l-14.3 11.2a2.985 2.985 0 0 1-1.849.638zM347.942 885.21a38.924 38.924 0 0 1-38.842-37.064l-3.1-65.7a3 3 0 0 1 4.483-2.748l57 32.5a38.966 38.966 0 0 1 14.521 53.092c-.034.06-.071.119-.11.177l-.143.216a38.922 38.922 0 0 1-33.809 19.527zm-35.688-97.6 2.844 60.25a32.935 32.935 0 0 0 61.5 14.757c.034-.061.07-.119.109-.177l.141-.212a32.96 32.96 0 0 0-12.329-44.82zm-92.44-120.91a36.992 36.992 0 0 1-37.014-36.684c-.1-19.394 32.423-75.544 33.806-77.923a3.006 3.006 0 0 1 2.573-1.493 2.968 2.968 0 0 1 2.592 1.455c1.418 2.361 34.722 58.021 34.929 77.413v.016a36.994 36.994 0 0 1-36.684 37.216zm-.572-107.135c-10.421 18.465-30.514 56.885-30.442 70.418a30.951 30.951 0 0 0 61.9-.463c-.155-13.544-20.78-51.647-31.458-69.954z" fill="#222433"/></svg></g><g transform="translate(73.0 668.0) rotate(0.0 529.5 4.0) scale(0.6511313330054107 0.7017543859649122)"><svg width="1626.4" height="11.4" viewBox="0 0 1626.4 11.4"><path d="M1623.4 8.8H3c-1.7 0-3-1.3-3-3s1.3-3 3-3h1620.4c1.7 0 3 1.3 3 3s-1.3 3-3 3z" fill="#222433"/></svg></g></svg>